HIERARCHY
ROOT Root
{
  OFFSET 0.0 0.0 0.0
  CHANNELS 6 Xposition Yposition Zposition Zrotation Yrotation Xrotation
  JOINT Hips
  {
    OFFSET 0.0 100.0 0.0
    CHANNELS 6 Xposition Yposition Zposition Zrotation Yrotation Xrotation
    JOINT Spine1
    {
      OFFSET 5.003913 -0.037094 -0.013727
      CHANNELS 3 Zrotation Yrotation Xrotation
      JOINT Spine2
      {
        OFFSET 7.125363 -1e-06 0.0
        CHANNELS 3 Zrotation Yrotation Xrotation
        JOINT Chest
        {
          OFFSET 7.594027 1e-06 0.0
          CHANNELS 3 Zrotation Yrotation Xrotation
          JOINT Neck1
          {
            OFFSET 26.313086 -0.460272 -0.181672
            CHANNELS 3 Zrotation Yrotation Xrotation
            JOINT Neck2
            {
              OFFSET 8.045911 0.0 0.0
              CHANNELS 3 Zrotation Yrotation Xrotation
              JOINT Head
              {
                OFFSET 6.432774 0.0 0.0
                CHANNELS 3 Zrotation Yrotation Xrotation
                JOINT HeadEnd
                {
                  OFFSET 16.169773 0.06451 0.00362
                  CHANNELS 3 Zrotation Yrotation Xrotation
                }
                JOINT Jaw
                {
                  OFFSET 0.108741 3.12938 0.002639
                  CHANNELS 3 Zrotation Yrotation Xrotation
                }
                JOINT LeftEye
                {
                  OFFSET 4.45173 8.166359 3.206392
                  CHANNELS 3 Zrotation Yrotation Xrotation
                }
                JOINT RightEye
                {
                  OFFSET 4.436895 8.135758 -3.222429
                  CHANNELS 3 Zrotation Yrotation Xrotation
                }
              }
            }
          }
          JOINT LeftShoulder
          {
            OFFSET 23.218927 5.195579 1.621656
            CHANNELS 3 Zrotation Yrotation Xrotation
            JOINT LeftArm
            {
              OFFSET 15.902118 2e-06 -2e-06
              CHANNELS 3 Zrotation Yrotation Xrotation
              JOINT LeftForeArm
              {
                OFFSET 28.739307 0.0 -1e-06
                CHANNELS 3 Zrotation Yrotation Xrotation
                JOINT LeftHand
                {
                  OFFSET 27.093981 -4e-06 0.0
                  CHANNELS 3 Zrotation Yrotation Xrotation
                  JOINT LeftHandThumb1
                  {
                    OFFSET 2.276781 3.380274 0.83384
                    CHANNELS 3 Zrotation Yrotation Xrotation
                    JOINT LeftHandThumb2
                    {
                      OFFSET 4.705309 -1e-06 -1e-06
                      CHANNELS 3 Zrotation Yrotation Xrotation
                      JOINT LeftHandThumb3
                      {
                        OFFSET 2.798515 0.0 3e-06
                        CHANNELS 3 Zrotation Yrotation Xrotation
                        JOINT LeftHandThumbEnd
                        {
                          OFFSET 3.180793 4e-06 -4e-06
                          CHANNELS 3 Zrotation Yrotation Xrotation
                        }
                      }
                    }
                  }
                  JOINT LeftHandIndex1
                  {
                    OFFSET 3.247786 2.352677 0.137192
                    CHANNELS 3 Zrotation Yrotation Xrotation
                    JOINT LeftHandIndex2
                    {
                      OFFSET 6.367095 1e-06 0.0
                      CHANNELS 3 Zrotation Yrotation Xrotation
                      JOINT LeftHandIndex3
                      {
                        OFFSET 3.662364 0.0 0.0
                        CHANNELS 3 Zrotation Yrotation Xrotation
                        JOINT LeftHandIndex4
                        {
                          OFFSET 2.329242 4e-06 -4e-06
                          CHANNELS 3 Zrotation Yrotation Xrotation
                          JOINT LeftHandIndexEnd
                          {
                            OFFSET 2.767823 1e-06 0.0
                            CHANNELS 3 Zrotation Yrotation Xrotation
                          }
                        }
                      }
                    }
                  }
                  JOINT LeftHandMiddle1
                  {
                    OFFSET 3.163612 0.945023 -0.406112
                    CHANNELS 3 Zrotation Yrotation Xrotation
                    JOINT LeftHandMiddle2
                    {
                      OFFSET 6.276789 3e-06 0.0
                      CHANNELS 3 Zrotation Yrotation Xrotation
                      JOINT LeftHandMiddle3
                      {
                        OFFSET 4.35652 -1e-06 4e-06
                        CHANNELS 3 Zrotation Yrotation Xrotation
                        JOINT LeftHandMiddle4
                        {
                          OFFSET 2.996877 0.0 8e-06
                          CHANNELS 3 Zrotation Yrotation Xrotation
                          JOINT LeftHandMiddleEnd
                          {
                            OFFSET 2.323256 3e-06 -4e-06
                            CHANNELS 3 Zrotation Yrotation Xrotation
                          }
                        }
                      }
                    }
                  }
                  JOINT LeftHandRing1
                  {
                    OFFSET 2.882606 -0.309162 0.107445
                    CHANNELS 3 Zrotation Yrotation Xrotation
                    JOINT LeftHandRing2
                    {
                      OFFSET 6.033198 0.0 4e-06
                      CHANNELS 3 Zrotation Yrotation Xrotation
                      JOINT LeftHandRing3
                      {
                        OFFSET 4.350578 3e-06 0.0
                        CHANNELS 3 Zrotation Yrotation Xrotation
                        JOINT LeftHandRing4
                        {
                          OFFSET 2.651321 2e-06 -7e-06
                          CHANNELS 3 Zrotation Yrotation Xrotation
                          JOINT LeftHandRingEnd
                          {
                            OFFSET 1.937663 1e-06 -4e-06
                            CHANNELS 3 Zrotation Yrotation Xrotation
                          }
                        }
                      }
                    }
                  }
                  JOINT LeftHandPinky1
                  {
                    OFFSET 2.865315 -1.525436 0.575687
                    CHANNELS 3 Zrotation Yrotation Xrotation
                    JOINT LeftHandPinky2
                    {
                      OFFSET 5.54936 1e-06 -8e-06
                      CHANNELS 3 Zrotation Yrotation Xrotation
                      JOINT LeftHandPinky3
                      {
                        OFFSET 3.070974 0.0 -4e-06
                        CHANNELS 3 Zrotation Yrotation Xrotation
                        JOINT LeftHandPinky4
                        {
                          OFFSET 1.549672 1e-06 0.0
                          CHANNELS 3 Zrotation Yrotation Xrotation
                          JOINT LeftHandPinkyEnd
                          {
                            OFFSET 1.952123 0.0 0.0
                            CHANNELS 3 Zrotation Yrotation Xrotation
                          }
                        }
                      }
                    }
                  }
                }
              }
            }
          }
          JOINT RightShoulder
          {
            OFFSET 23.161716 5.296122 -1.380114
            CHANNELS 3 Zrotation Yrotation Xrotation
            JOINT RightArm
            {
              OFFSET -16.027195 -2e-06 1.1e-05
              CHANNELS 3 Zrotation Yrotation Xrotation
              JOINT RightForeArm
              {
                OFFSET -28.736639 4e-06 2e-06
                CHANNELS 3 Zrotation Yrotation Xrotation
                JOINT RightHand
                {
                  OFFSET -27.133619 6e-06 0.0
                  CHANNELS 3 Zrotation Yrotation Xrotation
                  JOINT RightHandThumb1
                  {
                    OFFSET -2.274328 -3.351035 -0.83067
                    CHANNELS 3 Zrotation Yrotation Xrotation
                    JOINT RightHandThumb2
                    {
                      OFFSET -4.703594 -3e-06 2e-06
                      CHANNELS 3 Zrotation Yrotation Xrotation
                      JOINT RightHandThumb3
                      {
                        OFFSET -2.794935 -4e-06 -3e-06
                        CHANNELS 3 Zrotation Yrotation Xrotation
                        JOINT RightHandThumbEnd
                        {
                          OFFSET -3.183852 4e-06 1e-06
                          CHANNELS 3 Zrotation Yrotation Xrotation
                        }
                      }
                    }
                  }
                  JOINT RightHandIndex1
                  {
                    OFFSET -3.253496 -2.33755 -0.127667
                    CHANNELS 3 Zrotation Yrotation Xrotation
                    JOINT RightHandIndex2
                    {
                      OFFSET -6.344434 0.0 0.0
                      CHANNELS 3 Zrotation Yrotation Xrotation
                      JOINT RightHandIndex3
                      {
                        OFFSET -3.654871 0.0 -8e-06
                        CHANNELS 3 Zrotation Yrotation Xrotation
                        JOINT RightHandIndex4
                        {
                          OFFSET -2.327586 -1e-06 0.0
                          CHANNELS 3 Zrotation Yrotation Xrotation
                          JOINT RightHandIndexEnd
                          {
                            OFFSET -2.770001 3e-06 8e-06
                            CHANNELS 3 Zrotation Yrotation Xrotation
                          }
                        }
                      }
                    }
                  }
                  JOINT RightHandMiddle1
                  {
                    OFFSET -3.168223 -0.944764 0.411762
                    CHANNELS 3 Zrotation Yrotation Xrotation
                    JOINT RightHandMiddle2
                    {
                      OFFSET -6.266691 -1e-06 -4e-06
                      CHANNELS 3 Zrotation Yrotation Xrotation
                      JOINT RightHandMiddle3
                      {
                        OFFSET -4.348901 0.0 0.0
                        CHANNELS 3 Zrotation Yrotation Xrotation
                        JOINT RightHandMiddle4
                        {
                          OFFSET -3.00024 2e-06 -4e-06
                          CHANNELS 3 Zrotation Yrotation Xrotation
                          JOINT RightHandMiddleEnd
                          {
                            OFFSET -2.321477 -4e-06 -4e-06
                            CHANNELS 3 Zrotation Yrotation Xrotation
                          }
                        }
                      }
                    }
                  }
                  JOINT RightHandRing1
                  {
                    OFFSET -2.885654 0.293261 -0.119232
                    CHANNELS 3 Zrotation Yrotation Xrotation
                    JOINT RightHandRing2
                    {
                      OFFSET -6.032835 -1e-06 -4e-06
                      CHANNELS 3 Zrotation Yrotation Xrotation
                      JOINT RightHandRing3
                      {
                        OFFSET -4.33881 0.0 -4e-06
                        CHANNELS 3 Zrotation Yrotation Xrotation
                        JOINT RightHandRing4
                        {
                          OFFSET -2.654903 -4e-06 -4e-06
                          CHANNELS 3 Zrotation Yrotation Xrotation
                          JOINT RightHandRingEnd
                          {
                            OFFSET -1.935122 0.0 4e-06
                            CHANNELS 3 Zrotation Yrotation Xrotation
                          }
                        }
                      }
                    }
                  }
                  JOINT RightHandPinky1
                  {
                    OFFSET -2.866241 1.503904 -0.60527
                    CHANNELS 3 Zrotation Yrotation Xrotation
                    JOINT RightHandPinky2
                    {
                      OFFSET -5.553177 -2e-06 0.0
                      CHANNELS 3 Zrotation Yrotation Xrotation
                      JOINT RightHandPinky3
                      {
                        OFFSET -3.062664 -1e-06 -4e-06
                        CHANNELS 3 Zrotation Yrotation Xrotation
                        JOINT RightHandPinky4
                        {
                          OFFSET -1.546529 2e-06 4e-06
                          CHANNELS 3 Zrotation Yrotation Xrotation
                          JOINT RightHandPinkyEnd
                          {
                            OFFSET -1.952341 0.0 -4e-06
                            CHANNELS 3 Zrotation Yrotation Xrotation
                          }
                        }
                      }
                    }
                  }
                }
              }
            }
          }
        }
      }
    }
    JOINT LeftLeg
    {
      OFFSET -8.443107 2.567604 10.043214
      CHANNELS 3 Zrotation Yrotation Xrotation
      JOINT LeftShin
      {
        OFFSET 43.229198 1e-06 -1e-06
        CHANNELS 3 Zrotation Yrotation Xrotation
        JOINT LeftFoot
        {
          OFFSET 42.298611 1e-06 1e-06
          CHANNELS 3 Zrotation Yrotation Xrotation
          JOINT LeftToeBase
          {
            OFFSET 14.165858 1e-06 0.0
            CHANNELS 3 Zrotation Yrotation Xrotation
            JOINT LeftToeEnd
            {
              OFFSET 6.7141 -0.234461 0.0
              CHANNELS 3 Zrotation Yrotation Xrotation
            }
          }
        }
      }
    }
    JOINT RightLeg
    {
      OFFSET -8.303923 2.592729 -10.047278
      CHANNELS 3 Zrotation Yrotation Xrotation
      JOINT RightShin
      {
        OFFSET -43.369682 0.0 1e-06
        CHANNELS 3 Zrotation Yrotation Xrotation
        JOINT RightFoot
        {
          OFFSET -42.260784 4e-06 2e-06
          CHANNELS 3 Zrotation Yrotation Xrotation
          JOINT RightToeBase
          {
            OFFSET -14.222245 -2e-06 -1e-06
            CHANNELS 3 Zrotation Yrotation Xrotation
            JOINT RightToeEnd
            {
              OFFSET -6.660062 0.232574 -2e-06
              CHANNELS 3 Zrotation Yrotation Xrotation
            }
          }
        }
      }
    }
  }
}
MOTION
Frames: 4
Frame Time: 0.03333333333333333
0.0 0.0 0.0 0.0 -0.0 0.0 -5.54987 48.003117 187.837357 91.822464 -45.453709 87.561424 15.274115 -2.203631 1.762233 -4.530961 -0.834649 2.939067 26.5212 -6.976127 -0.558147 30.570677 -1.775972 2.376007 -2.576652 -0.603454 -0.880679 -23.816536 -5.749602 -1.725408 6e-06 1e-06 -0.0 -0.222182 0.019563 0.029819 -0.031667 0.003635 0.132275 -0.009748 0.032961 -0.074732 6.953722 -87.218636 4.082901 75.104424 -8.937989 -21.452354 18.225073 -1.010515 -0.014594 77.124886 68.834496 78.551086 17.636639 -26.322739 52.411194 -19.466658 -14.395597 29.410381 0.0 -8.774822 -3e-06 15.669781 -18.405684 6.254366 -0.609777 -1.795654 -3.889327 -4.80709 -11.046811 -2.937852 3e-06 -20.976019 4e-06 -5.019973 -25.03356 -4.03188 7e-06 0.0 -0.0 -10.634537 -5.686971 -3.565588 10.573274 -17.922955 -3.113897 2e-06 -13.821213 2e-06 -0.50178 -31.181505 -4.027015 -11.558918 -59.825909 7.916289 -13.982716 -7.150198 -2.875043 13.77273 -8.401492 -3.21824 0.347731 -34.211555 0.771658 -0.963029 -17.73337 2.62102 0.0 -0.0 -0.0 -17.346422 -20.095221 -4.201779 21.757559 -1.638375 3.86643 2e-06 -6.338825 1e-06 -1.69759 -22.591747 -6.194005 -1e-06 -6e-06 -1e-06 -171.848389 -64.588196 -1.850907 73.669456 -2.253317 -53.828663 14.125239 -0.731477 -0.172427 34.318626 55.56522 37.032452 22.182121 -20.375891 49.933308 -16.701811 -16.743525 28.476522 -2e-06 -12.6906 -2e-06 16.857754 -17.703115 2.409117 -0.10592 -1.513856 -4.275879 -5.039041 -5.61287 -2.953557 4e-06 -11.02052 -2e-06 -6.111296 -15.895326 -3.840471 0.0 -1e-06 -0.0 -10.283369 -5.680287 -4.341838 11.028291 -11.3024 -2.37263 -1.384269 -14.238577 -6.320119 -0.625438 -26.924183 -3.8276 -3.860626 -50.873695 -4.155046 -13.708525 -7.363474 -3.720939 18.141148 -14.052737 -3.242672 6e-06 -18.787266 -1e-06 -0.429711 -8.456038 2.555504 0.0 -1e-06 -0.0 -15.923532 -20.094479 -5.473586 30.419207 -7.190823 1.735932 2e-06 -8.162921 0.0 -1.861904 -22.861467 -6.16794 0.0 -2e-06 -1e-06 103.585609 -4.530499 11.55057 126.557602 0.907373 0.574909 -30.262213 19.488768 4.654142 -2.699293 1.112722 2.511816 -1.000002 -0.0 0.0 -23.291071 3.279391 8.328453 77.723625 0.825595 -0.854969 -34.022312 20.380615 -3.710123 -3.598367 0.377829 1.527199 -1.000004 0.0 1e-06 
0.0 0.0 0.0 0.0 -0.0 0.0 -4.907077 47.130116 190.512436 92.210045 -45.668526 85.877876 14.721657 -2.316563 1.788588 -4.83764 -0.733457 2.972465 25.952663 -7.073831 -0.306544 31.163012 -2.130131 2.100637 -2.516099 -0.574462 -0.473205 -24.382898 -5.838086 -0.961513 6e-06 -1e-06 0.0 -0.22434 0.017753 0.028927 -0.041395 -0.007023 0.143121 0.026862 0.034904 -0.087999 5.431526 -88.527138 6.150236 73.138092 -12.081685 -20.677216 20.120464 -0.771086 -0.080697 79.395264 68.49958 81.973099 17.636629 -26.322731 52.41119 -19.466661 -14.395596 29.410389 -1e-06 -8.774821 -1e-06 15.81527 -18.380959 6.175981 -0.609777 -1.795654 -3.889327 -4.807088 -11.046811 -2.937851 4e-06 -20.976019 0.0 -5.01997 -25.033558 -4.031882 6e-06 -0.0 1e-06 -10.634534 -5.686971 -3.565588 10.573275 -17.922951 -3.113901 2e-06 -13.82121 1e-06 -0.501777 -31.181505 -4.027018 -11.26253 -59.64344 7.446381 -13.982712 -7.150198 -2.875041 13.77273 -8.401492 -3.218242 0.347733 -34.211555 0.771655 -0.963028 -17.733366 2.621018 0.0 -0.0 -0.0 -17.34642 -20.095219 -4.201782 21.757557 -1.638376 3.866428 1e-06 -6.338823 0.0 -1.69759 -22.591747 -6.194007 0.0 -5e-06 -1e-06 -173.957779 -63.988007 -0.2634 77.046822 -4.336153 -53.364796 14.214002 -0.61376 -0.148845 35.156532 56.702534 38.426525 22.182117 -20.3759 49.933327 -16.701815 -16.743528 28.476532 -2e-06 -12.690601 -1e-06 16.921331 -17.776117 2.446039 -0.105919 -1.513857 -4.275882 -5.039041 -5.612871 -2.953558 5e-06 -11.020524 -1e-06 -6.111297 -15.895334 -3.840471 0.0 -1e-06 0.0 -10.283371 -5.680289 -4.34184 11.028296 -11.302404 -2.372633 -1.384268 -14.238579 -6.320121 -0.625437 -26.924189 -3.827601 -4.089489 -51.111061 -3.924352 -13.708526 -7.363477 -3.72094 18.141153 -14.052739 -3.242676 6e-06 -18.787271 -1e-06 -0.429711 -8.456043 2.555504 -0.0 -0.0 -0.0 -15.923536 -20.094482 -5.473586 30.419222 -7.190829 1.735926 5e-06 -8.162927 -1e-06 -1.861903 -22.861469 -6.167941 0.0 -1e-06 -1e-06 104.194237 -4.27918 10.525102 126.446449 1.199036 0.690582 -30.058231 21.37738 6.122183 -2.456384 1.077789 2.418512 -0.999998 0.0 -0.0 -20.140638 1.997346 8.374294 73.817734 0.20947 -0.745679 -33.018318 20.293156 -3.375606 -2.835469 0.403509 1.527366 -1.000002 1e-06 -0.0 
0.0 0.0 0.0 0.0 -0.0 0.0 -4.379279 46.539745 193.339264 93.261833 -46.650417 85.349274 14.03304 -2.340462 1.617715 -5.157932 -0.733985 2.694638 25.32155 -6.945465 -0.667609 31.100264 -1.700417 2.076032 -2.501237 -0.675569 -0.51382 -24.680387 -5.826464 -0.690051 6e-06 1e-06 0.0 -0.233629 0.009219 0.018472 -0.129334 -0.013903 0.119577 -0.028268 0.020765 -0.084964 59.820179 -89.343597 -48.045746 70.689667 -15.593948 -20.532043 22.843792 -0.521903 -0.127924 80.248878 67.5355 83.817551 17.636623 -26.322729 52.411205 -19.46665 -14.395597 29.410393 1e-06 -8.774821 -2e-06 16.040361 -18.378084 6.076686 -0.609777 -1.795653 -3.889328 -4.807088 -11.046809 -2.937851 3e-06 -20.976011 2e-06 -5.019969 -25.033546 -4.031883 6e-06 -0.0 2e-06 -10.634532 -5.686973 -3.565589 10.573271 -17.922947 -3.113899 1e-06 -13.821205 2e-06 -0.501778 -31.181501 -4.027016 -11.161269 -59.660236 7.164464 -13.982712 -7.150198 -2.875043 13.772727 -8.401491 -3.218241 0.347731 -34.211544 0.771656 -0.963029 -17.733366 2.62102 -0.0 0.0 -1e-06 -17.346415 -20.095213 -4.201784 21.757553 -1.638375 3.866427 1e-06 -6.338823 1e-06 -1.69759 -22.591742 -6.194004 -1e-06 -5e-06 -1e-06 -177.450348 -63.69017 2.678299 80.502655 -6.483826 -53.2528 14.478864 -0.530322 -0.075984 37.819798 58.171246 41.559219 22.182121 -20.375895 49.933319 -16.701807 -16.743528 28.476528 -1e-06 -12.690601 -2e-06 16.635098 -17.795523 2.574046 -0.10592 -1.513854 -4.27588 -5.039041 -5.612873 -2.953557 4e-06 -11.020523 -2e-06 -6.111298 -15.895334 -3.840471 0.0 -1e-06 1e-06 -10.283371 -5.680287 -4.341839 11.028293 -11.302406 -2.372632 -1.384269 -14.238579 -6.320121 -0.625439 -26.924192 -3.827602 -4.269431 -50.992329 -3.817283 -13.708525 -7.363473 -3.720941 18.141148 -14.052738 -3.242672 6e-06 -18.787271 -1e-06 -0.429712 -8.456043 2.555504 -1e-06 0.0 -0.0 -15.923534 -20.094482 -5.473587 30.419205 -7.190825 1.73593 3e-06 -8.162927 -1e-06 -1.8619 -22.861467 -6.167942 -1e-06 -2e-06 -1e-06 105.249413 -2.921003 9.193213 126.167107 1.423517 0.665836 -31.835543 21.62376 5.920121 -2.096516 1.007986 2.460704 -1.0 -1e-06 0.0 -17.515631 -0.144078 7.021066 69.084106 -0.446178 -0.595954 -31.612759 20.389341 -2.957562 -2.070192 0.418156 1.543847 -1.000002 -1e-06 -0.0 
0.0 0.0 0.0 0.0 -0.0 0.0 -3.982823 46.35017 196.208435 94.893776 -48.031376 85.543785 13.326578 -2.322253 1.475552 -5.449546 -0.840203 2.225195 24.877583 -6.682846 -1.344275 30.386053 -0.745975 2.153428 -2.570277 -0.723183 -1.014834 -24.708422 -5.984862 -0.921435 6e-06 1e-06 -0.0 -0.22761 0.00878 0.007393 -0.260405 -0.00304 0.07308 -0.172361 0.011543 -0.059854 110.807365 -88.572479 -99.138618 68.701271 -19.222601 -21.543495 25.951185 -0.106005 -0.07468 78.528282 65.814049 81.997818 17.636618 -26.32272 52.411179 -19.466652 -14.3956 29.410378 -0.0 -8.77482 -0.0 16.120174 -18.31982 5.949752 -0.609775 -1.79565 -3.889326 -4.807089 -11.046811 -2.937848 3e-06 -20.976011 1e-06 -5.019971 -25.033546 -4.031878 6e-06 -2e-06 0.0 -10.634531 -5.686967 -3.565586 10.573271 -17.922949 -3.113899 1e-06 -13.821206 1e-06 -0.501779 -31.181494 -4.027016 -11.019982 -59.596958 6.886203 -13.982711 -7.150195 -2.875041 13.772729 -8.401489 -3.218241 0.34773 -34.211544 0.771658 -0.96303 -17.733368 2.62102 0.0 -0.0 -0.0 -17.346415 -20.095213 -4.201779 21.757555 -1.638376 3.866427 0.0 -6.338821 0.0 -1.69759 -22.591736 -6.194005 -1e-06 -7e-06 -1e-06 179.258133 -63.669407 5.799877 83.17749 -8.437571 -53.859898 14.639705 -0.557163 0.02773 43.152245 59.575951 47.040565 22.182108 -20.375891 49.933308 -16.701807 -16.743526 28.476522 -2e-06 -12.6906 -1e-06 16.127687 -17.691748 2.779035 -0.105919 -1.513856 -4.275881 -5.03904 -5.612872 -2.953556 4e-06 -11.020525 -1e-06 -6.111297 -15.89533 -3.840468 -0.0 -2e-06 0.0 -10.283368 -5.680285 -4.341837 11.028292 -11.302404 -2.372632 -1.384269 -14.238581 -6.320119 -0.62544 -26.924189 -3.8276 -4.281461 -50.619686 -3.862664 -13.708523 -7.363475 -3.720937 18.141148 -14.052736 -3.242675 4e-06 -18.78727 -1e-06 -0.429711 -8.456039 2.555504 -0.0 -1e-06 -0.0 -15.923534 -20.094481 -5.473582 30.419205 -7.190822 1.735924 2e-06 -8.162925 -0.0 -1.861902 -22.861467 -6.167941 -1e-06 -3e-06 -1e-06 106.657448 -0.777699 7.779933 124.931412 1.545972 0.584941 -34.285355 20.684689 3.733605 -2.323591 1.020823 2.504085 -0.999999 -0.0 -0.0 -15.036153 -2.600015 4.773511 63.456154 -1.074425 -0.432226 -29.704117 20.865978 -2.652824 -1.366558 0.391954 1.575024 -1.000001 0.0 -0.0 
